<mxfile host="app.diagrams.net" modified="2022-05-20T04:30:53.758Z" agent="5.0 (Macintosh; Intel Mac OS X 10_13_6) AppleWebKit/537.36 (KHTML, like Gecko) Chrome/101.0.4951.64 Safari/537.36" etag="u1--JDpWC65CJlu8EDlr" version="18.0.8" type="github">
  <diagram id="SmOU96_9JbMgIr4DEIeT" name="Page-1">
    <mxGraphModel dx="1773" dy="614" grid="1" gridSize="10" guides="1" tooltips="1" connect="1" arrows="1" fold="1" page="1" pageScale="1" pageWidth="827" pageHeight="1169" math="0" shadow="0">
      <root>
        <mxCell id="0" />
        <mxCell id="1" parent="0" />
        <mxCell id="YhrdLiniVPboUyzm7Hzy-20" style="edgeStyle=orthogonalEdgeStyle;rounded=0;orthogonalLoop=1;jettySize=auto;html=1;exitX=0.5;exitY=1;exitDx=0;exitDy=0;entryX=0.5;entryY=0;entryDx=0;entryDy=0;" edge="1" parent="1" source="YhrdLiniVPboUyzm7Hzy-1" target="YhrdLiniVPboUyzm7Hzy-2">
          <mxGeometry relative="1" as="geometry" />
        </mxCell>
        <mxCell id="YhrdLiniVPboUyzm7Hzy-21" style="edgeStyle=orthogonalEdgeStyle;rounded=0;orthogonalLoop=1;jettySize=auto;html=1;exitX=0.5;exitY=1;exitDx=0;exitDy=0;entryX=0.5;entryY=0;entryDx=0;entryDy=0;" edge="1" parent="1" source="YhrdLiniVPboUyzm7Hzy-1" target="YhrdLiniVPboUyzm7Hzy-3">
          <mxGeometry relative="1" as="geometry" />
        </mxCell>
        <mxCell id="YhrdLiniVPboUyzm7Hzy-22" style="edgeStyle=orthogonalEdgeStyle;rounded=0;orthogonalLoop=1;jettySize=auto;html=1;exitX=0.5;exitY=1;exitDx=0;exitDy=0;entryX=0.5;entryY=0;entryDx=0;entryDy=0;" edge="1" parent="1" source="YhrdLiniVPboUyzm7Hzy-1" target="YhrdLiniVPboUyzm7Hzy-7">
          <mxGeometry relative="1" as="geometry" />
        </mxCell>
        <mxCell id="YhrdLiniVPboUyzm7Hzy-1" value="闭环电商平台前端主应用" style="rounded=0;whiteSpace=wrap;html=1;" vertex="1" parent="1">
          <mxGeometry x="424" y="40" width="100" height="60" as="geometry" />
        </mxCell>
        <mxCell id="YhrdLiniVPboUyzm7Hzy-43" style="edgeStyle=orthogonalEdgeStyle;rounded=0;orthogonalLoop=1;jettySize=auto;html=1;exitX=0.5;exitY=1;exitDx=0;exitDy=0;entryX=0.5;entryY=0;entryDx=0;entryDy=0;" edge="1" parent="1" source="YhrdLiniVPboUyzm7Hzy-2" target="YhrdLiniVPboUyzm7Hzy-31">
          <mxGeometry relative="1" as="geometry" />
        </mxCell>
        <mxCell id="YhrdLiniVPboUyzm7Hzy-2" value="shop-common-libs" style="rounded=0;whiteSpace=wrap;html=1;" vertex="1" parent="1">
          <mxGeometry x="414" y="170" width="120" height="60" as="geometry" />
        </mxCell>
        <mxCell id="YhrdLiniVPboUyzm7Hzy-23" style="edgeStyle=orthogonalEdgeStyle;rounded=0;orthogonalLoop=1;jettySize=auto;html=1;exitX=1;exitY=0.5;exitDx=0;exitDy=0;" edge="1" parent="1" source="YhrdLiniVPboUyzm7Hzy-3" target="YhrdLiniVPboUyzm7Hzy-2">
          <mxGeometry relative="1" as="geometry" />
        </mxCell>
        <mxCell id="YhrdLiniVPboUyzm7Hzy-32" style="edgeStyle=orthogonalEdgeStyle;rounded=0;orthogonalLoop=1;jettySize=auto;html=1;exitX=0.5;exitY=1;exitDx=0;exitDy=0;" edge="1" parent="1" source="YhrdLiniVPboUyzm7Hzy-3" target="YhrdLiniVPboUyzm7Hzy-25">
          <mxGeometry relative="1" as="geometry" />
        </mxCell>
        <mxCell id="YhrdLiniVPboUyzm7Hzy-33" style="edgeStyle=orthogonalEdgeStyle;rounded=0;orthogonalLoop=1;jettySize=auto;html=1;exitX=0.5;exitY=1;exitDx=0;exitDy=0;entryX=0.5;entryY=0;entryDx=0;entryDy=0;" edge="1" parent="1" source="YhrdLiniVPboUyzm7Hzy-3" target="YhrdLiniVPboUyzm7Hzy-27">
          <mxGeometry relative="1" as="geometry" />
        </mxCell>
        <mxCell id="YhrdLiniVPboUyzm7Hzy-34" style="edgeStyle=orthogonalEdgeStyle;rounded=0;orthogonalLoop=1;jettySize=auto;html=1;exitX=0.5;exitY=1;exitDx=0;exitDy=0;entryX=0.5;entryY=0;entryDx=0;entryDy=0;" edge="1" parent="1" source="YhrdLiniVPboUyzm7Hzy-3" target="YhrdLiniVPboUyzm7Hzy-28">
          <mxGeometry relative="1" as="geometry" />
        </mxCell>
        <mxCell id="YhrdLiniVPboUyzm7Hzy-35" style="edgeStyle=orthogonalEdgeStyle;rounded=0;orthogonalLoop=1;jettySize=auto;html=1;exitX=0.5;exitY=1;exitDx=0;exitDy=0;entryX=0.5;entryY=0;entryDx=0;entryDy=0;" edge="1" parent="1" source="YhrdLiniVPboUyzm7Hzy-3" target="YhrdLiniVPboUyzm7Hzy-29">
          <mxGeometry relative="1" as="geometry" />
        </mxCell>
        <mxCell id="YhrdLiniVPboUyzm7Hzy-3" value="shop-manange-center" style="rounded=0;whiteSpace=wrap;html=1;" vertex="1" parent="1">
          <mxGeometry x="115" y="170" width="140" height="60" as="geometry" />
        </mxCell>
        <mxCell id="YhrdLiniVPboUyzm7Hzy-24" style="edgeStyle=orthogonalEdgeStyle;rounded=0;orthogonalLoop=1;jettySize=auto;html=1;exitX=0;exitY=0.5;exitDx=0;exitDy=0;entryX=1;entryY=0.5;entryDx=0;entryDy=0;" edge="1" parent="1" source="YhrdLiniVPboUyzm7Hzy-7" target="YhrdLiniVPboUyzm7Hzy-2">
          <mxGeometry relative="1" as="geometry" />
        </mxCell>
        <mxCell id="YhrdLiniVPboUyzm7Hzy-45" style="edgeStyle=orthogonalEdgeStyle;rounded=0;orthogonalLoop=1;jettySize=auto;html=1;exitX=0.5;exitY=1;exitDx=0;exitDy=0;entryX=0.5;entryY=0;entryDx=0;entryDy=0;" edge="1" parent="1" source="YhrdLiniVPboUyzm7Hzy-7" target="YhrdLiniVPboUyzm7Hzy-26">
          <mxGeometry relative="1" as="geometry" />
        </mxCell>
        <mxCell id="YhrdLiniVPboUyzm7Hzy-7" value="shop-data-center" style="rounded=0;whiteSpace=wrap;html=1;" vertex="1" parent="1">
          <mxGeometry x="680" y="170" width="110" height="60" as="geometry" />
        </mxCell>
        <mxCell id="YhrdLiniVPboUyzm7Hzy-9" value="@baidu/cube-sdk" style="rounded=0;whiteSpace=wrap;html=1;" vertex="1" parent="1">
          <mxGeometry x="675" y="370" width="120" height="60" as="geometry" />
        </mxCell>
        <mxCell id="YhrdLiniVPboUyzm7Hzy-11" value="微前端公共服务子应用" style="rounded=0;whiteSpace=wrap;html=1;" vertex="1" parent="1">
          <mxGeometry x="-30" y="370" width="90" height="60" as="geometry" />
        </mxCell>
        <mxCell id="YhrdLiniVPboUyzm7Hzy-12" value="信息流公共服务子应用" style="rounded=0;whiteSpace=wrap;html=1;" vertex="1" parent="1">
          <mxGeometry x="100" y="370" width="90" height="60" as="geometry" />
        </mxCell>
        <mxCell id="YhrdLiniVPboUyzm7Hzy-13" value="@baidu/feed-preview" style="rounded=0;whiteSpace=wrap;html=1;" vertex="1" parent="1">
          <mxGeometry x="230" y="370" width="120" height="60" as="geometry" />
        </mxCell>
        <mxCell id="YhrdLiniVPboUyzm7Hzy-36" style="edgeStyle=orthogonalEdgeStyle;rounded=0;orthogonalLoop=1;jettySize=auto;html=1;exitX=0.5;exitY=1;exitDx=0;exitDy=0;entryX=0.5;entryY=0;entryDx=0;entryDy=0;" edge="1" parent="1" source="YhrdLiniVPboUyzm7Hzy-25" target="YhrdLiniVPboUyzm7Hzy-11">
          <mxGeometry relative="1" as="geometry" />
        </mxCell>
        <mxCell id="YhrdLiniVPboUyzm7Hzy-44" style="edgeStyle=orthogonalEdgeStyle;rounded=0;orthogonalLoop=1;jettySize=auto;html=1;exitX=0.5;exitY=1;exitDx=0;exitDy=0;entryX=0.5;entryY=0;entryDx=0;entryDy=0;" edge="1" parent="1" source="YhrdLiniVPboUyzm7Hzy-25" target="YhrdLiniVPboUyzm7Hzy-12">
          <mxGeometry relative="1" as="geometry" />
        </mxCell>
        <mxCell id="YhrdLiniVPboUyzm7Hzy-25" value="推广管理列表（计划 + 创意）" style="rounded=0;whiteSpace=wrap;html=1;" vertex="1" parent="1">
          <mxGeometry x="-40" y="270" width="175" height="40" as="geometry" />
        </mxCell>
        <mxCell id="YhrdLiniVPboUyzm7Hzy-46" style="edgeStyle=orthogonalEdgeStyle;rounded=0;orthogonalLoop=1;jettySize=auto;html=1;exitX=0.5;exitY=1;exitDx=0;exitDy=0;entryX=0.5;entryY=0;entryDx=0;entryDy=0;" edge="1" parent="1" source="YhrdLiniVPboUyzm7Hzy-26" target="YhrdLiniVPboUyzm7Hzy-9">
          <mxGeometry relative="1" as="geometry" />
        </mxCell>
        <mxCell id="YhrdLiniVPboUyzm7Hzy-26" value="数据报告（4个）" style="rounded=0;whiteSpace=wrap;html=1;" vertex="1" parent="1">
          <mxGeometry x="675" y="275" width="120" height="30" as="geometry" />
        </mxCell>
        <mxCell id="YhrdLiniVPboUyzm7Hzy-37" style="edgeStyle=orthogonalEdgeStyle;rounded=0;orthogonalLoop=1;jettySize=auto;html=1;exitX=0.5;exitY=1;exitDx=0;exitDy=0;entryX=0.5;entryY=0;entryDx=0;entryDy=0;" edge="1" parent="1" source="YhrdLiniVPboUyzm7Hzy-27" target="YhrdLiniVPboUyzm7Hzy-12">
          <mxGeometry relative="1" as="geometry" />
        </mxCell>
        <mxCell id="YhrdLiniVPboUyzm7Hzy-27" value="计划设置" style="rounded=0;whiteSpace=wrap;html=1;" vertex="1" parent="1">
          <mxGeometry x="150" y="270" width="70" height="40" as="geometry" />
        </mxCell>
        <mxCell id="YhrdLiniVPboUyzm7Hzy-39" style="edgeStyle=orthogonalEdgeStyle;rounded=0;orthogonalLoop=1;jettySize=auto;html=1;exitX=0.5;exitY=1;exitDx=0;exitDy=0;entryX=0.5;entryY=0;entryDx=0;entryDy=0;" edge="1" parent="1" source="YhrdLiniVPboUyzm7Hzy-28" target="YhrdLiniVPboUyzm7Hzy-12">
          <mxGeometry relative="1" as="geometry" />
        </mxCell>
        <mxCell id="YhrdLiniVPboUyzm7Hzy-28" value="定向设置" style="rounded=0;whiteSpace=wrap;html=1;" vertex="1" parent="1">
          <mxGeometry x="230" y="270" width="70" height="40" as="geometry" />
        </mxCell>
        <mxCell id="YhrdLiniVPboUyzm7Hzy-40" style="edgeStyle=orthogonalEdgeStyle;rounded=0;orthogonalLoop=1;jettySize=auto;html=1;exitX=0.5;exitY=1;exitDx=0;exitDy=0;entryX=0.5;entryY=0;entryDx=0;entryDy=0;" edge="1" parent="1" source="YhrdLiniVPboUyzm7Hzy-29" target="YhrdLiniVPboUyzm7Hzy-12">
          <mxGeometry relative="1" as="geometry" />
        </mxCell>
        <mxCell id="YhrdLiniVPboUyzm7Hzy-41" style="edgeStyle=orthogonalEdgeStyle;rounded=0;orthogonalLoop=1;jettySize=auto;html=1;exitX=0.5;exitY=1;exitDx=0;exitDy=0;entryX=0.5;entryY=0;entryDx=0;entryDy=0;" edge="1" parent="1" source="YhrdLiniVPboUyzm7Hzy-29" target="YhrdLiniVPboUyzm7Hzy-13">
          <mxGeometry relative="1" as="geometry" />
        </mxCell>
        <mxCell id="YhrdLiniVPboUyzm7Hzy-42" style="edgeStyle=orthogonalEdgeStyle;rounded=0;orthogonalLoop=1;jettySize=auto;html=1;exitX=0.5;exitY=1;exitDx=0;exitDy=0;" edge="1" parent="1" source="YhrdLiniVPboUyzm7Hzy-29" target="YhrdLiniVPboUyzm7Hzy-31">
          <mxGeometry relative="1" as="geometry" />
        </mxCell>
        <mxCell id="YhrdLiniVPboUyzm7Hzy-29" value="创意设置" style="rounded=0;whiteSpace=wrap;html=1;" vertex="1" parent="1">
          <mxGeometry x="310" y="270" width="70" height="40" as="geometry" />
        </mxCell>
        <mxCell id="YhrdLiniVPboUyzm7Hzy-31" value="组件库、图片库、视频库等依赖" style="rounded=0;whiteSpace=wrap;html=1;" vertex="1" parent="1">
          <mxGeometry x="424" y="370" width="100" height="60" as="geometry" />
        </mxCell>
      </root>
    </mxGraphModel>
  </diagram>
</mxfile>
